<svg width="34" height="32" viewBox="0 0 34 32" fill="none" xmlns="http://www.w3.org/2000/svg">
<path d="M3.66683 0C1.81683 0 0.333496 1.48333 0.333496 3.33333V20C0.333496 20.8841 0.684685 21.7319 1.30981 22.357C1.93493 22.9821 2.78277 23.3333 3.66683 23.3333H17.0002V31.6667L22.0002 26.6667L27.0002 31.6667V23.3333H30.3335C31.2176 23.3333 32.0654 22.9821 32.6905 22.357C33.3156 21.7319 33.6668 20.8841 33.6668 20V3.33333C33.6668 2.44928 33.3156 1.60143 32.6905 0.976311C32.0654 0.351189 31.2176 0 30.3335 0H3.66683ZM17.0002 3.33333L22.0002 6.66667L27.0002 3.33333V9.16667L32.0002 11.6667L27.0002 14.1667V20L22.0002 16.6667L17.0002 20V14.1667L12.0002 11.6667L17.0002 9.16667V3.33333ZM3.66683 3.33333H12.0002V6.66667H3.66683V3.33333ZM3.66683 10H8.66683V13.3333H3.66683V10ZM3.66683 16.6667H12.0002V20H3.66683V16.6667Z" fill="#302B63"/>
</svg>
