<svg width="26" height="26" viewBox="0 0 26 26" fill="none" xmlns="http://www.w3.org/2000/svg">
<path d="M13.0001 8.83447C10.7064 8.83447 8.83452 10.7063 8.83452 13.0001C8.83452 15.2938 10.7064 17.1657 13.0001 17.1657C15.2939 17.1657 17.1658 15.2938 17.1658 13.0001C17.1658 10.7063 15.2939 8.83447 13.0001 8.83447ZM25.4939 13.0001C25.4939 11.2751 25.5095 9.56572 25.4126 7.84385C25.3158 5.84385 24.8595 4.06885 23.397 2.60635C21.9314 1.14072 20.1595 0.687599 18.1595 0.590724C16.4345 0.493849 14.7251 0.509474 13.0033 0.509474C11.2783 0.509474 9.5689 0.493849 7.84702 0.590724C5.84702 0.687599 4.07202 1.14385 2.60952 2.60635C1.1439 4.07197 0.690773 5.84385 0.593898 7.84385C0.497023 9.56885 0.512648 11.2782 0.512648 13.0001C0.512648 14.722 0.497023 16.4345 0.593898 18.1563C0.690773 20.1563 1.14702 21.9313 2.60952 23.3938C4.07515 24.8595 5.84702 25.3126 7.84702 25.4095C9.57202 25.5063 11.2814 25.4907 13.0033 25.4907C14.7283 25.4907 16.4376 25.5063 18.1595 25.4095C20.1595 25.3126 21.9345 24.8563 23.397 23.3938C24.8626 21.9282 25.3158 20.1563 25.4126 18.1563C25.5126 16.4345 25.4939 14.7251 25.4939 13.0001ZM13.0001 19.4095C9.45327 19.4095 6.59077 16.547 6.59077 13.0001C6.59077 9.45322 9.45327 6.59072 13.0001 6.59072C16.547 6.59072 19.4095 9.45322 19.4095 13.0001C19.4095 16.547 16.547 19.4095 13.0001 19.4095ZM19.672 7.8251C18.8439 7.8251 18.1751 7.15635 18.1751 6.32822C18.1751 5.5001 18.8439 4.83135 19.672 4.83135C20.5001 4.83135 21.1689 5.5001 21.1689 6.32822C21.1691 6.52487 21.1306 6.71962 21.0555 6.90135C20.9803 7.08307 20.8701 7.24818 20.731 7.38723C20.592 7.52627 20.4269 7.63652 20.2451 7.71166C20.0634 7.7868 19.8687 7.82535 19.672 7.8251Z" fill="#FDFDFD"/>
</svg>
