<svg width="40" height="40" viewBox="0 0 40 40" fill="none" xmlns="http://www.w3.org/2000/svg">
<path d="M13.5 20C15.2239 20 16.8772 19.3152 18.0962 18.0962C19.3152 16.8772 20 15.2239 20 13.5C20 11.7761 19.3152 10.1228 18.0962 8.90381C16.8772 7.68482 15.2239 7 13.5 7C11.7761 7 10.1228 7.68482 8.90381 8.90381C7.68482 10.1228 7 11.7761 7 13.5C7 15.2239 7.68482 16.8772 8.90381 18.0962C10.1228 19.3152 11.7761 20 13.5 20ZM24.874 30.29C25.934 30.724 27.282 31 28.998 31C36.998 31 36.998 25 36.998 25C36.998 24.2047 36.6822 23.4419 36.12 22.8794C35.5579 22.3168 34.7953 22.0005 34 22H24.744C25.53 22.952 26.002 24.17 26.002 25.5V26.212C25.9979 26.3804 25.9866 26.5486 25.968 26.716C25.833 27.9656 25.4625 29.1784 24.876 30.29H24.874ZM34 15C34 16.3261 33.4732 17.5979 32.5355 18.5355C31.5979 19.4732 30.3261 20 29 20C27.6739 20 26.4021 19.4732 25.4645 18.5355C24.5268 17.5979 24 16.3261 24 15C24 13.6739 24.5268 12.4021 25.4645 11.4645C26.4021 10.5268 27.6739 10 29 10C30.3261 10 31.5979 10.5268 32.5355 11.4645C33.4732 12.4021 34 13.6739 34 15ZM3 26C3 24.9391 3.42143 23.9217 4.17157 23.1716C4.92172 22.4214 5.93913 22 7 22H20C21.0609 22 22.0783 22.4214 22.8284 23.1716C23.5786 23.9217 24 24.9391 24 26C24 26 24 34 13.5 34C3 34 3 26 3 26ZM26 26.212L25.994 26.34L25.998 26.212H26Z" fill="#302B63"/>
</svg>
