<svg width="96" height="96" viewBox="0 0 96 96" fill="none" xmlns="http://www.w3.org/2000/svg">
<path d="M48 6C24.8063 6 6 24.8063 6 48C6 71.1937 24.8063 90 48 90C71.1937 90 90 71.1937 90 48C90 24.8063 71.1937 6 48 6ZM61.5094 48.6469L41.0344 63.5437C40.9221 63.6244 40.7898 63.6726 40.652 63.6829C40.5141 63.6933 40.3761 63.6654 40.2531 63.6025C40.13 63.5395 40.0267 63.4438 39.9545 63.326C39.8823 63.2081 39.844 63.0726 39.8438 62.9344V33.1594C39.8433 33.0209 39.8812 32.885 39.9533 32.7667C40.0253 32.6484 40.1287 32.5524 40.252 32.4893C40.3753 32.4262 40.5137 32.3984 40.6518 32.4092C40.7899 32.4199 40.9223 32.4686 41.0344 32.55L61.5094 47.4375C61.6061 47.5059 61.685 47.5965 61.7395 47.7017C61.7939 47.807 61.8224 47.9237 61.8224 48.0422C61.8224 48.1607 61.7939 48.2774 61.7395 48.3826C61.685 48.4878 61.6061 48.5785 61.5094 48.6469Z" fill="#FDFDFD"/>
</svg>
