<svg width="40" height="40" viewBox="0 0 40 40" fill="none" xmlns="http://www.w3.org/2000/svg">
<path d="M36.5831 14.535L36.5414 14.255L36.4981 14.265C36.2019 12.8801 35.5197 11.6073 34.5303 10.594C33.541 9.5806 32.2849 8.86808 30.9074 8.53885C29.53 8.20961 28.0875 8.27712 26.7468 8.73355C25.4061 9.18999 24.222 10.0167 23.3316 11.118C22.4412 12.2194 21.8808 13.5503 21.7153 14.9568C21.5498 16.3634 21.7859 17.788 22.3963 19.066C23.0067 20.3439 23.9665 21.4229 25.1646 22.1781C26.3627 22.9333 27.7502 23.3338 29.1664 23.3334C29.5381 23.3334 29.8948 23.2767 30.2498 23.225C30.1348 23.6117 30.0164 24.005 29.8264 24.3584C29.6364 24.8717 29.3398 25.3167 29.0448 25.765C28.7981 26.25 28.3631 26.5784 28.0431 26.9934C27.7081 27.3967 27.2514 27.665 26.8898 28C26.5348 28.35 26.0698 28.525 25.6998 28.7717C25.3131 28.9934 24.9764 29.2384 24.6164 29.355L23.7181 29.725L22.9281 30.0534L23.7348 33.285L24.7298 33.045C25.0481 32.965 25.4364 32.8717 25.8781 32.76C26.3298 32.6767 26.8114 32.4484 27.3481 32.24C27.8764 32.0017 28.4914 31.8434 29.0614 31.4617C29.6348 31.0984 30.2964 30.795 30.8798 30.3084C31.4448 29.8067 32.1264 29.3717 32.6298 28.735C33.1798 28.1384 33.7231 27.5117 34.1448 26.7984C34.6331 26.1184 34.9648 25.3717 35.3148 24.6334C35.6314 23.895 35.8864 23.14 36.0948 22.4067C36.4898 20.9367 36.6664 19.54 36.7348 18.345C36.7914 17.1484 36.7581 16.1534 36.6881 15.4334C36.6647 15.1327 36.6297 14.833 36.5831 14.535ZM18.2498 14.535L18.2081 14.255L18.1648 14.265C17.8686 12.8801 17.1864 11.6073 16.197 10.594C15.2076 9.5806 13.9515 8.86808 12.5741 8.53885C11.1966 8.20961 9.75412 8.27712 8.41344 8.73355C7.07275 9.18999 5.88871 10.0167 4.99829 11.118C4.10788 12.2194 3.54749 13.5503 3.38197 14.9568C3.21645 16.3634 3.45256 17.788 4.06299 19.066C4.67341 20.3439 5.6332 21.4229 6.8313 22.1781C8.0294 22.9333 9.41684 23.3338 10.8331 23.3334C11.2048 23.3334 11.5614 23.2767 11.9164 23.225C11.8014 23.6117 11.6831 24.005 11.4931 24.3584C11.3031 24.8717 11.0064 25.3167 10.7114 25.765C10.4648 26.25 10.0298 26.5784 9.70976 26.9934C9.37476 27.3967 8.91809 27.665 8.55643 28C8.20143 28.35 7.73643 28.525 7.36643 28.7717C6.97976 28.9934 6.64309 29.2384 6.28309 29.355L5.38476 29.725C4.88309 29.93 4.59643 30.05 4.59643 30.05L5.40309 33.2817L6.39809 33.0417C6.71643 32.9617 7.10476 32.8684 7.54643 32.7567C7.99809 32.6734 8.47976 32.445 9.01643 32.2367C9.54476 31.9984 10.1598 31.84 10.7298 31.4584C11.3031 31.095 11.9648 30.7917 12.5481 30.305C13.1131 29.8034 13.7948 29.3684 14.2981 28.7317C14.8481 28.135 15.3914 27.5084 15.8131 26.795C16.3014 26.115 16.6331 25.3684 16.9831 24.63C17.2998 23.8917 17.5548 23.1367 17.7631 22.4034C18.1581 20.9334 18.3348 19.5367 18.4031 18.3417C18.4598 17.145 18.4264 16.15 18.3564 15.43C18.3315 15.1305 18.296 14.832 18.2498 14.535Z" fill="#545454"/>
</svg>
