<svg width="40" height="40" viewBox="0 0 40 40" fill="none" xmlns="http://www.w3.org/2000/svg">
<path d="M10.8336 16.6667C10.4619 16.6667 10.1052 16.7233 9.75024 16.775C9.86524 16.3883 9.98358 15.995 10.1736 15.6417C10.3636 15.1283 10.6602 14.6833 10.9552 14.235C11.2019 13.75 11.6369 13.4217 11.9569 13.0067C12.2919 12.6033 12.7486 12.335 13.1102 12C13.4652 11.65 13.9302 11.475 14.3002 11.2283C14.6869 11.0067 15.0236 10.7617 15.3836 10.645L16.2819 10.275L17.0719 9.94667L16.2636 6.71667L15.2686 6.95667C14.9502 7.03667 14.5619 7.13001 14.1202 7.24167C13.6686 7.32501 13.1869 7.55334 12.6502 7.76167C12.1202 7.99834 11.5069 8.15834 10.9369 8.53834C10.3636 8.90167 9.70191 9.20501 9.11858 9.69167C8.55358 10.1933 7.87191 10.6283 7.36858 11.2667C6.81858 11.8633 6.27524 12.49 5.85358 13.2033C5.36524 13.8833 5.03358 14.63 4.68358 15.3683C4.36691 16.1067 4.11191 16.8617 3.90358 17.595C3.50858 19.065 3.33191 20.4617 3.26358 21.6567C3.20691 22.8533 3.24024 23.8483 3.31024 24.5683C3.33524 24.9083 3.38191 25.2383 3.41524 25.4667L3.45691 25.7467L3.50024 25.7367C3.79668 27.1214 4.47908 28.3939 5.46851 29.407C6.45795 30.4201 7.71398 31.1323 9.09131 31.4614C10.4686 31.7904 11.911 31.7228 13.2515 31.2664C14.592 30.81 15.7759 29.9833 16.6663 28.8821C17.5566 27.781 18.117 26.4502 18.2826 25.0438C18.4482 23.6375 18.2123 22.2129 17.6021 20.935C16.992 19.6572 16.0325 18.5781 14.8347 17.8228C13.6369 17.0674 12.2497 16.6666 10.8336 16.6667ZM29.1669 16.6667C28.7952 16.6667 28.4386 16.7233 28.0836 16.775C28.1986 16.3883 28.3169 15.995 28.5069 15.6417C28.6969 15.1283 28.9936 14.6833 29.2886 14.235C29.5352 13.75 29.9702 13.4217 30.2902 13.0067C30.6252 12.6033 31.0819 12.335 31.4436 12C31.7986 11.65 32.2636 11.475 32.6336 11.2283C33.0202 11.0067 33.3569 10.7617 33.7169 10.645L34.6152 10.275L35.4052 9.94667L34.5969 6.71667L33.6019 6.95667C33.2836 7.03667 32.8952 7.13001 32.4536 7.24167C32.0019 7.32501 31.5202 7.55334 30.9836 7.76167C30.4552 8.00001 29.8402 8.15834 29.2702 8.54001C28.6969 8.90334 28.0352 9.20667 27.4519 9.69334C26.8869 10.195 26.2052 10.63 25.7019 11.2667C25.1519 11.8633 24.6086 12.49 24.1869 13.2033C23.6986 13.8833 23.3669 14.63 23.0169 15.3683C22.7002 16.1067 22.4452 16.8617 22.2369 17.595C21.8419 19.065 21.6652 20.4617 21.5969 21.6567C21.5402 22.8533 21.5736 23.8483 21.6436 24.5683C21.6686 24.9083 21.7152 25.2383 21.7486 25.4667L21.7902 25.7467L21.8336 25.7367C22.13 27.1214 22.8124 28.3939 23.8018 29.407C24.7913 30.4201 26.0473 31.1323 27.4246 31.4614C28.802 31.7904 30.2443 31.7228 31.5848 31.2664C32.9253 30.81 34.1092 29.9833 34.9996 28.8821C35.8899 27.781 36.4503 26.4502 36.6159 25.0438C36.7816 23.6375 36.5456 22.2129 35.9355 20.935C35.3253 19.6572 34.3658 18.5781 33.168 17.8228C31.9702 17.0674 30.583 16.6666 29.1669 16.6667Z" fill="#545454"/>
</svg>
